<?xml version="1.0" standalone="no"?>
<!DOCTYPE svg PUBLIC "-//W3C//DTD SVG 20010904//EN"
 "http://www.w3.org/TR/2001/REC-SVG-20010904/DTD/svg10.dtd">
<svg version="1.0" xmlns="http://www.w3.org/2000/svg"
 width="60.000000pt" height="60.000000pt" viewBox="0 0 60.000000 60.000000"
 preserveAspectRatio="xMidYMid meet">
<metadata>
Created by potrace 1.16, written by Peter Selinger 2001-2019
</metadata>
<g transform="translate(0.000000,60.000000) scale(0.100000,-0.100000)"
fill="#000000" stroke="none">
<path d="M201 581 c-6 -11 -11 -41 -11 -66 0 -31 -11 -70 -32 -118 -32 -71
-33 -75 -33 -217 0 -122 2 -145 15 -145 12 0 16 24 21 130 5 116 9 137 37 200
l31 70 63 0 c61 0 63 -1 66 -28 3 -22 -3 -30 -29 -45 -18 -9 -46 -29 -62 -43
-27 -23 -30 -32 -29 -77 1 -64 29 -119 86 -169 46 -41 115 -71 135 -59 24 15
9 33 -44 55 -63 26 -110 77 -126 135 -16 59 -5 82 51 111 27 14 54 34 60 44
18 34 12 80 -15 106 -20 21 -34 25 -84 25 l-60 0 -3 52 c-3 55 -20 72 -37 39z"/>
</g>
</svg>
