<?xml version="1.0" standalone="no"?>
<!DOCTYPE svg PUBLIC "-//W3C//DTD SVG 20010904//EN"
 "http://www.w3.org/TR/2001/REC-SVG-20010904/DTD/svg10.dtd">
<svg version="1.0" xmlns="http://www.w3.org/2000/svg"
 width="60.000000pt" height="60.000000pt" viewBox="0 0 60.000000 60.000000"
 preserveAspectRatio="xMidYMid meet">
<metadata>
Created by potrace 1.16, written by Peter Selinger 2001-2019
</metadata>
<g transform="translate(0.000000,60.000000) scale(0.100000,-0.100000)"
fill="#000000" stroke="none">
<path d="M150 575 c-25 -30 3 -36 161 -33 146 3 154 4 154 23 0 19 -8 20 -151
23 -127 2 -153 0 -164 -13z"/>
<path d="M180 495 c0 -30 54 -93 86 -101 39 -10 32 -47 -11 -63 -46 -16 -61
-41 -80 -131 -9 -41 -25 -93 -35 -116 -25 -50 -25 -64 -2 -64 26 0 60 67 78
152 16 79 36 118 59 118 13 0 15 -24 15 -145 l0 -145 25 0 25 0 0 145 c0 80 4
145 8 145 14 0 40 -32 52 -65 6 -17 14 -73 18 -125 7 -89 9 -95 30 -98 20 -3
22 0 22 45 -1 147 -37 255 -96 279 -25 11 -34 20 -34 38 0 15 7 27 18 30 30
10 71 59 78 94 6 27 4 32 -13 32 -12 0 -25 -13 -36 -35 -34 -71 -115 -72 -152
-2 -23 43 -55 50 -55 12z"/>
</g>

  <desc>Hlai Block-Script / 方块黎文</desc>
  <!-- 
  *************************************************************************
  [ PROJECT: HLAI BLOCK-SCRIPT ][ LICENSE: CC0 1.0 Universal (Public Domain) ]
  
  * ENGLISH DECLARATION *
  This scalable vector graphic (SVG) is a core component of a custom 
  typography system designed specifically for the Hlai language (a Kra-Dai 
  endangered language native to Hainan, China). 
  
  It reconstructs the 1957 Latin-based Hlai orthography into a block-style 
  syllabary, fusing precision with the visual aesthetics of ancient Han 
  scripts (such as the Bird-Worm Seal Script and Qin Dynasty Small Seal Script).
  
  No rights reserved. Anyone is free to copy, modify, distribute, or 
  perform the work, even for commercial purposes. 
  
  May the ancient voices of the Eastern be remembered in the digital age.
  
  ~~~~~~~~~~~~~~~~~~~~~~~~~~~~~~~~~~~~~~~~~~~~~~~~~~~~~~~~~~~~~~~~~~~~~~~~~
  * 普通话（标准中文）宣言 *
  📜 方块黎文
  本矢量字符专为中国海南省濒危少数民族语言「黎语」量身定制。
  线条美学致敬中国先秦鸟虫篆与秦代小篆，结合方块音节逻辑重构。
  
  完全开源，放弃版权。愿古老的东方语言，在数字时代以最美的姿态被铭记。
  *************************************************************************
  -->
</svg>