<?xml version="1.0" standalone="no"?>
<!DOCTYPE svg PUBLIC "-//W3C//DTD SVG 20010904//EN"
 "http://www.w3.org/TR/2001/REC-SVG-20010904/DTD/svg10.dtd">
<svg version="1.0" xmlns="http://www.w3.org/2000/svg"
 width="60.000000pt" height="60.000000pt" viewBox="0 0 60.000000 60.000000"
 preserveAspectRatio="xMidYMid meet">
<metadata>
Created by potrace 1.16, written by Peter Selinger 2001-2019
</metadata>
<g transform="translate(0.000000,60.000000) scale(0.100000,-0.100000)"
fill="#000000" stroke="none">
<path d="M188 584 c-32 -17 -48 -43 -48 -78 0 -23 4 -26 35 -26 32 0 35 2 35
30 0 42 23 50 149 50 104 0 111 1 111 20 0 19 -7 20 -127 20 -93 -1 -135 -5
-155 -16z"/>
<path d="M210 449 c-41 -16 -70 -50 -70 -81 0 -25 3 -28 34 -28 30 0 35 3 38
27 5 41 38 53 156 53 95 0 102 1 102 20 0 19 -6 20 -117 19 -65 0 -129 -5
-143 -10z"/>
<path d="M159 247 l-34 -23 -3 -107 -3 -107 36 0 35 0 0 100 c0 88 2 100 19
110 11 5 29 10 40 10 14 0 21 6 21 20 0 29 -66 27 -111 -3z"/>
<path d="M318 202 c-21 -37 -53 -95 -73 -130 l-35 -62 38 0 c36 0 38 2 77 73
l39 74 38 -15 c72 -28 68 -74 -7 -88 -25 -4 -35 -11 -35 -25 0 -36 97 -22 140
21 46 46 14 106 -71 132 -44 13 -45 15 -23 47 14 19 14 25 3 32 -34 22 -54 9
-91 -59z"/>
</g>

  <desc>Hlai Block-Script / 方块黎文</desc>
  <!-- 
  *************************************************************************
  [ PROJECT: HLAI BLOCK-SCRIPT ][ LICENSE: CC0 1.0 Universal (Public Domain) ]
  
  * ENGLISH DECLARATION *
  This scalable vector graphic (SVG) is a core component of a custom 
  typography system designed specifically for the Hlai language (a Kra-Dai 
  endangered language native to Hainan, China). 
  
  It reconstructs the 1957 Latin-based Hlai orthography into a block-style 
  syllabary, fusing precision with the visual aesthetics of ancient Han 
  scripts (such as the Bird-Worm Seal Script and Qin Dynasty Small Seal Script).
  
  No rights reserved. Anyone is free to copy, modify, distribute, or 
  perform the work, even for commercial purposes. 
  
  May the ancient voices of the Eastern be remembered in the digital age.
  
  ~~~~~~~~~~~~~~~~~~~~~~~~~~~~~~~~~~~~~~~~~~~~~~~~~~~~~~~~~~~~~~~~~~~~~~~~~
  * 普通话（标准中文）宣言 *
  📜 方块黎文
  本矢量字符专为中国海南省濒危少数民族语言「黎语」量身定制。
  线条美学致敬中国先秦鸟虫篆与秦代小篆，结合方块音节逻辑重构。
  
  完全开源，放弃版权。愿古老的东方语言，在数字时代以最美的姿态被铭记。
  *************************************************************************
  -->
</svg>