<?xml version="1.0" standalone="no"?>
<!DOCTYPE svg PUBLIC "-//W3C//DTD SVG 20010904//EN"
 "http://www.w3.org/TR/2001/REC-SVG-20010904/DTD/svg10.dtd">
<svg version="1.0" xmlns="http://www.w3.org/2000/svg"
 width="60.000000pt" height="60.000000pt" viewBox="0 0 60.000000 60.000000"
 preserveAspectRatio="xMidYMid meet">
<metadata>
Created by potrace 1.16, written by Peter Selinger 2001-2019
</metadata>
<g transform="translate(0.000000,60.000000) scale(0.100000,-0.100000)"
fill="#000000" stroke="none">
<path d="M110 581 c0 -12 7 -21 15 -21 11 0 15 -12 15 -50 l0 -50 35 0 36 0
-3 68 -3 67 -47 3 c-43 3 -48 1 -48 -17z"/>
<path d="M240 580 c0 -19 7 -20 120 -20 113 0 120 1 120 20 0 19 -7 20 -120
20 -113 0 -120 -1 -120 -20z"/>
<path d="M300 470 c0 -16 7 -20 36 -20 58 0 74 -14 74 -65 0 -45 0 -45 36 -45
l35 0 -3 52 c-3 47 -7 55 -37 75 -47 32 -141 33 -141 3z"/>
<path d="M301 407 c-18 -18 -36 -23 -106 -26 -77 -3 -85 -5 -85 -23 0 -19 5
-20 103 -16 76 3 109 8 129 21 39 26 41 44 9 55 -24 8 -32 6 -50 -11z"/>
<path d="M132 254 c-21 -14 -22 -23 -22 -130 l0 -114 35 0 35 0 0 94 c0 103
11 125 41 87 15 -18 25 -21 49 -16 16 4 30 10 30 14 0 10 -31 54 -48 69 -22
17 -93 15 -120 -4z"/>
<path d="M353 140 l-71 -130 35 0 c21 0 41 7 47 15 10 14 15 14 48 0 54 -22
108 -20 108 4 0 13 -10 20 -36 24 -75 12 -81 44 -29 138 37 65 35 79 -10 79
-15 -1 -37 -32 -92 -130z"/>
</g>

  <desc>Hlai Block-Script / 方块黎文</desc>
  <!-- 
  *************************************************************************
  [ PROJECT: HLAI BLOCK-SCRIPT ][ LICENSE: CC0 1.0 Universal (Public Domain) ]
  
  * ENGLISH DECLARATION *
  This scalable vector graphic (SVG) is a core component of a custom 
  typography system designed specifically for the Hlai language (a Kra-Dai 
  endangered language native to Hainan, China). 
  
  It reconstructs the 1957 Latin-based Hlai orthography into a block-style 
  syllabary, fusing precision with the visual aesthetics of ancient Han 
  scripts (such as the Bird-Worm Seal Script and Qin Dynasty Small Seal Script).
  
  No rights reserved. Anyone is free to copy, modify, distribute, or 
  perform the work, even for commercial purposes. 
  
  May the ancient voices of the Eastern be remembered in the digital age.
  
  ~~~~~~~~~~~~~~~~~~~~~~~~~~~~~~~~~~~~~~~~~~~~~~~~~~~~~~~~~~~~~~~~~~~~~~~~~
  * 普通话（标准中文）宣言 *
  📜 方块黎文
  本矢量字符专为中国海南省濒危少数民族语言「黎语」量身定制。
  线条美学致敬中国先秦鸟虫篆与秦代小篆，结合方块音节逻辑重构。
  
  完全开源，放弃版权。愿古老的东方语言，在数字时代以最美的姿态被铭记。
  *************************************************************************
  -->
</svg>